<svg width="31" height="31" fill="none" xmlns="http://www.w3.org/2000/svg"><path fill-rule="evenodd" clip-rule="evenodd" d="M25.875 12.237l2.326.517c.864.156 1.799.91 1.799 1.912v1.812c0 1.001-.949 1.614-1.813 1.812l-2.355.588a11.086 11.086 0 0 1-.65 1.555l1.26 2.1c.47.749.707 1.853 0 2.561l-1.282 1.282c-.345.346-.81.494-1.28.494a2.41 2.41 0 0 1-1.342-.414l-2.045-1.302c-.523.271-1.07.503-1.639.687l-.522 2.36c-.155.864-.91 1.799-1.912 1.799h-1.812c-1.002 0-1.614-.949-1.813-1.813l-.58-2.32a10.647 10.647 0 0 1-1.776-.747l-2.095 1.337a2.42 2.42 0 0 1-1.345.413c-.468 0-.933-.147-1.278-.493l-1.283-1.282c-.707-.708-.47-1.813 0-2.562l1.325-2.21a10.722 10.722 0 0 1-.596-1.444l-2.354-.588C1.949 18.093 1 17.481 1 16.48v-1.813c0-1 .935-1.756 1.799-1.911l2.325-.517c.17-.54.39-1.056.638-1.557L4.438 8.475c-.47-.752-.708-1.856 0-2.565L5.72 4.63c.347-.347.812-.493 1.28-.493.487 0 .976.159 1.345.413l2.09 1.331a10.836 10.836 0 0 1 1.764-.742l.583-2.325c.197-.865.81-1.814 1.812-1.814h1.812c1 0 1.756.934 1.912 1.798l.522 2.354a10.93 10.93 0 0 1 1.657.696l2.04-1.3a2.416 2.416 0 0 1 1.344-.413c.468 0 .933.146 1.279.493l1.283 1.281c.706.709.47 1.813 0 2.565l-1.26 2.095c.274.534.51 1.089.692 1.668zM11.14 15.511c0 2.41 1.968 4.372 4.385 4.372s4.384-1.962 4.384-4.372-1.967-4.372-4.384-4.372c-2.417 0-4.385 1.962-4.385 4.372z" fill="#BCC1FF"/><path d="M28.201 12.754l-.054.244.01.002.044-.246zm-2.326-.517l-.239.075.043.138.142.031.054-.244zm2.313 6.053l-.056-.243h-.005l.06.243zm-2.356.588l-.06-.242-.134.033-.044.132.238.077zm-.65 1.555l-.222-.113-.063.124.071.118.215-.129zm1.26 2.1l-.214.128.003.004.212-.133zm0 2.561l.177.177-.176-.177zm-1.282 1.282l-.177-.177.177.177zm-2.622.08l.142-.205-.008-.005-.134.21zm-2.045-1.302l.134-.211-.122-.077-.127.066.115.222zm-1.639.687l-.077-.238-.136.044-.03.14.243.054zm-.522 2.36l-.244-.054-.002.01.246.044zm-5.537-.014l.244-.056-.001-.004-.243.06zm-.58-2.32l.243-.06-.034-.135-.134-.043-.075.239zm-1.776-.747l.117-.22-.128-.07-.123.08.134.21zm-2.095 1.337l-.135-.21-.008.005.143.205zm-2.623-.08l.177-.177-.177.177zm-1.283-1.282l-.177.177.177-.177zm0-2.562l.212.133.002-.005-.214-.128zm1.325-2.21l.215.13.07-.118-.06-.123-.225.112zm-.596-1.444l.238-.077-.043-.132-.134-.033-.061.242zm-2.354-.588l.06-.242-.005-.002-.055.244zm-.014-5.536l.044.246.01-.002-.054-.244zm2.325-.517l.054.244.141-.031.043-.138-.238-.075zm.638-1.557l.224.11.06-.122-.07-.117-.214.129zM4.438 8.475l.215-.129-.003-.004-.212.133zm0-2.565l.177.177-.177-.177zM5.72 4.63l.177.177-.177-.177zm2.625-.08l-.143.206.008.005.135-.21zm2.09 1.331l-.134.21.123.079.128-.068-.117-.221zm1.764-.742l.076.238.133-.042.034-.135-.243-.061zm.583-2.325l.243.06V2.87l-.243-.056zm5.537-.015l-.247.044.003.01.244-.054zm.522 2.354l-.244.054.03.14.136.043.078-.237zm1.657.696l-.115.222.127.066.122-.077-.134-.21zm2.04-1.3l.135.211.008-.005-.142-.206zm2.623.08l-.177.177.177-.177zm1.283 1.281l.177-.176-.177.176zm0 2.565l-.212-.133-.003.004.215.129zm-1.26 2.095l-.214-.129-.071.12.063.123.223-.114zm3.073 1.94l-2.327-.516-.108.488 2.326.517.109-.488zm1.994 2.156c0-.582-.273-1.082-.65-1.451a2.67 2.67 0 0 0-1.354-.706l-.09.492c.383.069.788.273 1.094.572.305.297.5.675.5 1.094h.5zm0 1.813v-1.813h-.5v1.813h.5zm-2.007 2.056a3.119 3.119 0 0 0 1.34-.661c.386-.339.667-.807.667-1.395h-.5c0 .413-.193.752-.497 1.02-.308.27-.72.457-1.121.549l.111.487zm-2.35.587l2.355-.588-.121-.485-2.355.588.12.485zm-.487 1.425a11.43 11.43 0 0 0 .664-1.59l-.476-.155c-.171.524-.387 1.03-.634 1.52l.446.225zm1.251 1.858l-1.26-2.1-.429.258 1.26 2.099.429-.258zm-.037 2.867c.415-.416.546-.946.513-1.458-.032-.508-.226-1.011-.479-1.414l-.423.266c.218.347.377.771.403 1.18.026.404-.077.78-.368 1.073l.354.353zm-1.283 1.282l1.282-1.282-.353-.353-1.283 1.281.354.354zm-1.456.567c.52 0 1.054-.164 1.456-.567l-.354-.353c-.288.289-.684.42-1.102.42v.5zm-1.486-.458c.409.284.95.458 1.486.458v-.5c-.435 0-.877-.143-1.2-.369l-.286.41zm-2.037-1.297l2.045 1.302.269-.421-2.045-1.303-.269.422zm-1.427.714a10.963 10.963 0 0 0 1.677-.703l-.23-.444c-.511.265-1.045.492-1.6.671l.153.476zm-.355 2.176l.522-2.36-.488-.108-.522 2.36.488.108zM16.42 30.25c.583 0 1.083-.273 1.452-.65.368-.378.62-.872.706-1.354l-.492-.089a2.165 2.165 0 0 1-.572 1.093c-.297.305-.675.5-1.094.5v.5zm-1.812 0h1.812v-.5h-1.812v.5zm-2.056-2.007c.106.464.325.957.66 1.34.34.386.807.667 1.396.667v-.5c-.413 0-.753-.193-1.02-.497a2.622 2.622 0 0 1-.549-1.122l-.487.112zm-.58-2.314l.58 2.32.486-.122-.58-2.32-.485.122zm-1.65-.588c.577.306 1.185.565 1.818.765l.15-.477a10.393 10.393 0 0 1-1.734-.73l-.234.442zm-1.844 1.327l2.096-1.337-.27-.422-2.095 1.337.269.422zm-1.479.452a2.67 2.67 0 0 0 1.487-.458l-.285-.41A2.169 2.169 0 0 1 7 26.62v.5zm-1.455-.567c.402.404.936.567 1.455.567v-.5c-.417 0-.812-.13-1.101-.42l-.354.353zM4.26 25.272l1.283 1.282.353-.354-1.282-1.282-.354.354zM4.226 22.4c-.252.402-.446.905-.479 1.413-.033.513.099 1.042.514 1.459l.354-.354c-.292-.292-.395-.668-.369-1.072.026-.41.186-.833.404-1.18l-.424-.266zm1.323-2.205l-1.325 2.209.428.257 1.326-2.209-.429-.257zm-.62-1.238c.168.512.375 1.004.61 1.478l.448-.223a10.48 10.48 0 0 1-.582-1.41l-.476.155zm-2.177-.423l2.354.588.122-.485-2.355-.588-.121.485zM.75 16.479c0 .588.281 1.056.667 1.395.383.336.876.555 1.34.66l.111-.486a2.622 2.622 0 0 1-1.12-.55c-.305-.267-.498-.606-.498-1.019h-.5zm0-1.813v1.813h.5v-1.813h-.5zm2.004-2.157a2.666 2.666 0 0 0-1.353.706c-.379.369-.651.869-.651 1.451h.5c0-.418.195-.796.5-1.094a2.166 2.166 0 0 1 1.093-.571l-.089-.492zm2.316-.515l-2.326.517.109.488 2.325-.517-.108-.488zm.468-1.424c-.252.51-.478 1.037-.653 1.593l.477.15c.165-.525.38-1.028.624-1.522l-.448-.221zM4.224 8.603l1.324 2.206.428-.257-1.323-2.206-.429.257zm.038-2.87c-.416.417-.548.947-.515 1.46.033.508.227 1.011.48 1.414l.423-.265a2.636 2.636 0 0 1-.404-1.182c-.026-.404.077-.78.37-1.073l-.354-.353zm1.28-1.28l-1.28 1.28.353.354 1.281-1.281-.354-.354zm1.456-.567c-.518 0-1.051.162-1.456.566l.354.354c.29-.29.685-.42 1.102-.42v-.5zm1.488.458a2.672 2.672 0 0 0-1.488-.458v.5c.437 0 .877.143 1.203.369l.285-.411zm2.083 1.325L8.478 4.34l-.269.421L10.3 6.09l.269-.42zm1.554-.77c-.628.2-1.232.457-1.805.76l.233.442c.548-.29 1.125-.534 1.723-.725l-.151-.476zm.416-2.147l-.583 2.325.485.122.582-2.326-.484-.121zM14.594.75c-.589 0-1.057.281-1.396.667-.336.383-.554.876-.66 1.34l.487.112c.092-.401.279-.814.549-1.122.267-.304.607-.497 1.02-.497v-.5zm1.812 0h-1.812v.5h1.812v-.5zm2.158 2.004a2.664 2.664 0 0 0-.706-1.353c-.37-.379-.87-.651-1.452-.651v.5c.418 0 .796.195 1.094.5.299.306.503.71.572 1.092l.492-.088zm.52 2.343l-.522-2.353-.488.108.521 2.354.489-.109zm1.528.53a11.116 11.116 0 0 0-1.695-.713l-.155.475c.562.182 1.1.412 1.62.681l.23-.444zm1.791-1.29l-2.04 1.3.268.422 2.04-1.3-.268-.422zm1.478-.452c-.536 0-1.077.174-1.486.458l.285.41a2.166 2.166 0 0 1 1.2-.368v-.5zm1.456.567c-.403-.405-.937-.567-1.456-.567v.5c.418 0 .813.13 1.102.42l.354-.353zm1.282 1.28l-1.282-1.28-.354.353 1.283 1.281.353-.353zm.036 2.874c.252-.403.445-.906.478-1.415.033-.512-.098-1.042-.513-1.458l-.354.353c.29.292.394.669.368 1.073a2.624 2.624 0 0 1-.403 1.182l.424.265zm-1.257 2.092l1.259-2.096-.429-.257-1.259 2.095.429.258zm.715 1.464a10.847 10.847 0 0 0-.707-1.707l-.445.228c.269.524.499 1.065.675 1.629l.477-.15zm-10.588 7.47c-2.28 0-4.135-1.85-4.135-4.121h-.5c0 2.549 2.08 4.622 4.635 4.622v-.5zm4.134-4.121a4.134 4.134 0 0 1-4.134 4.122v.5c2.555 0 4.634-2.073 4.634-4.622h-.5zm-4.134-4.122c2.28 0 4.134 1.85 4.134 4.122h.5c0-2.549-2.08-4.622-4.634-4.622v.5zm-4.135 4.122c0-2.271 1.855-4.122 4.135-4.122v-.5c-2.554 0-4.635 2.073-4.635 4.622h.5z" fill="#BBC0FF"/></svg>